<?xml version="1.0" encoding="UTF-8" standalone="no"?>
<!DOCTYPE svg PUBLIC "-//W3C//DTD SVG 1.1//EN"
 "http://www.w3.org/Graphics/SVG/1.1/DTD/svg11.dtd">
<!-- Generated by graphviz version 2.42.3 (20191010.1750)
 -->
<!-- Title: G Pages: 1 -->
<svg width="372pt" height="885pt"
 viewBox="0.00 0.00 372.00 885.00" xmlns="http://www.w3.org/2000/svg" xmlns:xlink="http://www.w3.org/1999/xlink">
<g id="graph0" class="graph" transform="scale(1 1) rotate(0) translate(4 881)">
<title>G</title>
<polygon fill="white" stroke="transparent" points="-4,4 -4,-881 368,-881 368,4 -4,4"/>
<!-- 131476533105232 -->
<g id="node1" class="node">
<title>131476533105232</title>
<g id="a_node1"><a xlink:title="input_1">
<path fill="lightskyblue" stroke="black" d="M61,-830.5C61,-830.5 303,-830.5 303,-830.5 309,-830.5 315,-836.5 315,-842.5 315,-842.5 315,-864.5 315,-864.5 315,-870.5 309,-876.5 303,-876.5 303,-876.5 61,-876.5 61,-876.5 55,-876.5 49,-870.5 49,-864.5 49,-864.5 49,-842.5 49,-842.5 49,-836.5 55,-830.5 61,-830.5"/>
<text text-anchor="middle" x="119.5" y="-861.3" font-family="Times,serif" font-size="14.00">Name: input_1</text>
<polyline fill="none" stroke="black" points="49,-853.5 190,-853.5 "/>
<text text-anchor="middle" x="119.5" y="-838.3" font-family="Times,serif" font-size="14.00">Type: InputLayer</text>
<polyline fill="none" stroke="black" points="190,-830.5 190,-876.5 "/>
<text text-anchor="middle" x="252.5" y="-849.8" font-family="Times,serif" font-size="14.00">Device: INPUT</text>
</a>
</g>
</g>
<!-- 131476533107200 -->
<g id="node2" class="node">
<title>131476533107200</title>
<g id="a_node2"><a xlink:title="conv2d">
<path fill="lightskyblue" stroke="black" d="M35.5,-747.5C35.5,-747.5 328.5,-747.5 328.5,-747.5 334.5,-747.5 340.5,-753.5 340.5,-759.5 340.5,-759.5 340.5,-781.5 340.5,-781.5 340.5,-787.5 334.5,-793.5 328.5,-793.5 328.5,-793.5 35.5,-793.5 35.5,-793.5 29.5,-793.5 23.5,-787.5 23.5,-781.5 23.5,-781.5 23.5,-759.5 23.5,-759.5 23.5,-753.5 29.5,-747.5 35.5,-747.5"/>
<text text-anchor="middle" x="128.5" y="-778.3" font-family="Times,serif" font-size="14.00">Name: conv2d</text>
<polyline fill="none" stroke="black" points="23.5,-770.5 233.5,-770.5 "/>
<text text-anchor="middle" x="82.5" y="-755.3" font-family="Times,serif" font-size="14.00">Type: Conv2D</text>
<polyline fill="none" stroke="black" points="141.5,-747.5 141.5,-770.5 "/>
<text text-anchor="middle" x="187.5" y="-755.3" font-family="Times,serif" font-size="14.00">Act: linear</text>
<polyline fill="none" stroke="black" points="233.5,-747.5 233.5,-793.5 "/>
<text text-anchor="middle" x="287" y="-766.8" font-family="Times,serif" font-size="14.00">Device: DPU</text>
</a>
</g>
</g>
<!-- 131476533105232&#45;&gt;131476533107200 -->
<g id="edge1" class="edge">
<title>131476533105232&#45;&gt;131476533107200</title>
<path fill="none" stroke="black" d="M182,-830.37C182,-822.15 182,-812.66 182,-803.73"/>
<polygon fill="black" stroke="black" points="185.5,-803.61 182,-793.61 178.5,-803.61 185.5,-803.61"/>
</g>
<!-- 131476533106864 -->
<g id="node3" class="node">
<title>131476533106864</title>
<g id="a_node3"><a xlink:title="Folded into previous layer conv2d">
<path fill="lightskyblue" stroke="black" d="M33,-664.5C33,-664.5 331,-664.5 331,-664.5 337,-664.5 343,-670.5 343,-676.5 343,-676.5 343,-698.5 343,-698.5 343,-704.5 337,-710.5 331,-710.5 331,-710.5 33,-710.5 33,-710.5 27,-710.5 21,-704.5 21,-698.5 21,-698.5 21,-676.5 21,-676.5 21,-670.5 27,-664.5 33,-664.5"/>
<text text-anchor="middle" x="128.5" y="-695.3" font-family="Times,serif" font-size="14.00">Name: batch_normalization</text>
<polyline fill="none" stroke="black" points="21,-687.5 236,-687.5 "/>
<text text-anchor="middle" x="128.5" y="-672.3" font-family="Times,serif" font-size="14.00">Type: BatchNormalization</text>
<polyline fill="none" stroke="black" points="236,-664.5 236,-710.5 "/>
<text text-anchor="middle" x="289.5" y="-683.8" font-family="Times,serif" font-size="14.00">Device: DPU</text>
</a>
</g>
</g>
<!-- 131476533107200&#45;&gt;131476533106864 -->
<g id="edge2" class="edge">
<title>131476533107200&#45;&gt;131476533106864</title>
<path fill="none" stroke="black" d="M182,-747.37C182,-739.15 182,-729.66 182,-720.73"/>
<polygon fill="black" stroke="black" points="185.5,-720.61 182,-710.61 178.5,-720.61 185.5,-720.61"/>
</g>
<!-- 131476533105328 -->
<g id="node4" class="node">
<title>131476533105328</title>
<g id="a_node4"><a xlink:title="relu">
<path fill="lightskyblue" stroke="black" d="M90,-581.5C90,-581.5 274,-581.5 274,-581.5 280,-581.5 286,-587.5 286,-593.5 286,-593.5 286,-615.5 286,-615.5 286,-621.5 280,-627.5 274,-627.5 274,-627.5 90,-627.5 90,-627.5 84,-627.5 78,-621.5 78,-615.5 78,-615.5 78,-593.5 78,-593.5 78,-587.5 84,-581.5 90,-581.5"/>
<text text-anchor="middle" x="128.5" y="-612.3" font-family="Times,serif" font-size="14.00">Name: relu</text>
<polyline fill="none" stroke="black" points="78,-604.5 179,-604.5 "/>
<text text-anchor="middle" x="128.5" y="-589.3" font-family="Times,serif" font-size="14.00">Type: ReLU</text>
<polyline fill="none" stroke="black" points="179,-581.5 179,-627.5 "/>
<text text-anchor="middle" x="232.5" y="-600.8" font-family="Times,serif" font-size="14.00">Device: DPU</text>
</a>
</g>
</g>
<!-- 131476533106864&#45;&gt;131476533105328 -->
<g id="edge3" class="edge">
<title>131476533106864&#45;&gt;131476533105328</title>
<path fill="none" stroke="black" d="M182,-664.37C182,-656.15 182,-646.66 182,-637.73"/>
<polygon fill="black" stroke="black" points="185.5,-637.61 182,-627.61 178.5,-637.61 185.5,-637.61"/>
</g>
<!-- 131476533370016 -->
<g id="node5" class="node">
<title>131476533370016</title>
<g id="a_node5"><a xlink:title="conv2d_1">
<path fill="lightskyblue" stroke="black" d="M35.5,-498.5C35.5,-498.5 328.5,-498.5 328.5,-498.5 334.5,-498.5 340.5,-504.5 340.5,-510.5 340.5,-510.5 340.5,-532.5 340.5,-532.5 340.5,-538.5 334.5,-544.5 328.5,-544.5 328.5,-544.5 35.5,-544.5 35.5,-544.5 29.5,-544.5 23.5,-538.5 23.5,-532.5 23.5,-532.5 23.5,-510.5 23.5,-510.5 23.5,-504.5 29.5,-498.5 35.5,-498.5"/>
<text text-anchor="middle" x="128.5" y="-529.3" font-family="Times,serif" font-size="14.00">Name: conv2d_1</text>
<polyline fill="none" stroke="black" points="23.5,-521.5 233.5,-521.5 "/>
<text text-anchor="middle" x="82.5" y="-506.3" font-family="Times,serif" font-size="14.00">Type: Conv2D</text>
<polyline fill="none" stroke="black" points="141.5,-498.5 141.5,-521.5 "/>
<text text-anchor="middle" x="187.5" y="-506.3" font-family="Times,serif" font-size="14.00">Act: linear</text>
<polyline fill="none" stroke="black" points="233.5,-498.5 233.5,-544.5 "/>
<text text-anchor="middle" x="287" y="-517.8" font-family="Times,serif" font-size="14.00">Device: DPU</text>
</a>
</g>
</g>
<!-- 131476533105328&#45;&gt;131476533370016 -->
<g id="edge4" class="edge">
<title>131476533105328&#45;&gt;131476533370016</title>
<path fill="none" stroke="black" d="M182,-581.37C182,-573.15 182,-563.66 182,-554.73"/>
<polygon fill="black" stroke="black" points="185.5,-554.61 182,-544.61 178.5,-554.61 185.5,-554.61"/>
</g>
<!-- 131476533369680 -->
<g id="node6" class="node">
<title>131476533369680</title>
<g id="a_node6"><a xlink:title="Folded into previous layer conv2d_1">
<path fill="lightskyblue" stroke="black" d="M25,-415.5C25,-415.5 339,-415.5 339,-415.5 345,-415.5 351,-421.5 351,-427.5 351,-427.5 351,-449.5 351,-449.5 351,-455.5 345,-461.5 339,-461.5 339,-461.5 25,-461.5 25,-461.5 19,-461.5 13,-455.5 13,-449.5 13,-449.5 13,-427.5 13,-427.5 13,-421.5 19,-415.5 25,-415.5"/>
<text text-anchor="middle" x="128.5" y="-446.3" font-family="Times,serif" font-size="14.00">Name: batch_normalization_1</text>
<polyline fill="none" stroke="black" points="13,-438.5 244,-438.5 "/>
<text text-anchor="middle" x="128.5" y="-423.3" font-family="Times,serif" font-size="14.00">Type: BatchNormalization</text>
<polyline fill="none" stroke="black" points="244,-415.5 244,-461.5 "/>
<text text-anchor="middle" x="297.5" y="-434.8" font-family="Times,serif" font-size="14.00">Device: DPU</text>
</a>
</g>
</g>
<!-- 131476533370016&#45;&gt;131476533369680 -->
<g id="edge5" class="edge">
<title>131476533370016&#45;&gt;131476533369680</title>
<path fill="none" stroke="black" d="M182,-498.37C182,-490.15 182,-480.66 182,-471.73"/>
<polygon fill="black" stroke="black" points="185.5,-471.61 182,-461.61 178.5,-471.61 185.5,-471.61"/>
</g>
<!-- 131479521989296 -->
<g id="node7" class="node">
<title>131479521989296</title>
<g id="a_node7"><a xlink:title="max_pooling2d">
<path fill="lightskyblue" stroke="black" d="M52.5,-332.5C52.5,-332.5 311.5,-332.5 311.5,-332.5 317.5,-332.5 323.5,-338.5 323.5,-344.5 323.5,-344.5 323.5,-366.5 323.5,-366.5 323.5,-372.5 317.5,-378.5 311.5,-378.5 311.5,-378.5 52.5,-378.5 52.5,-378.5 46.5,-378.5 40.5,-372.5 40.5,-366.5 40.5,-366.5 40.5,-344.5 40.5,-344.5 40.5,-338.5 46.5,-332.5 52.5,-332.5"/>
<text text-anchor="middle" x="128.5" y="-363.3" font-family="Times,serif" font-size="14.00">Name: max_pooling2d</text>
<polyline fill="none" stroke="black" points="40.5,-355.5 216.5,-355.5 "/>
<text text-anchor="middle" x="128.5" y="-340.3" font-family="Times,serif" font-size="14.00">Type: MaxPooling2D</text>
<polyline fill="none" stroke="black" points="216.5,-332.5 216.5,-378.5 "/>
<text text-anchor="middle" x="270" y="-351.8" font-family="Times,serif" font-size="14.00">Device: DPU</text>
</a>
</g>
</g>
<!-- 131476533369680&#45;&gt;131479521989296 -->
<g id="edge6" class="edge">
<title>131476533369680&#45;&gt;131479521989296</title>
<path fill="none" stroke="black" d="M182,-415.37C182,-407.15 182,-397.66 182,-388.73"/>
<polygon fill="black" stroke="black" points="185.5,-388.61 182,-378.61 178.5,-388.61 185.5,-388.61"/>
</g>
<!-- 131476533251520 -->
<g id="node8" class="node">
<title>131476533251520</title>
<g id="a_node8"><a xlink:title="conv2d_3">
<path fill="lightskyblue" stroke="black" d="M35.5,-249.5C35.5,-249.5 328.5,-249.5 328.5,-249.5 334.5,-249.5 340.5,-255.5 340.5,-261.5 340.5,-261.5 340.5,-283.5 340.5,-283.5 340.5,-289.5 334.5,-295.5 328.5,-295.5 328.5,-295.5 35.5,-295.5 35.5,-295.5 29.5,-295.5 23.5,-289.5 23.5,-283.5 23.5,-283.5 23.5,-261.5 23.5,-261.5 23.5,-255.5 29.5,-249.5 35.5,-249.5"/>
<text text-anchor="middle" x="128.5" y="-280.3" font-family="Times,serif" font-size="14.00">Name: conv2d_3</text>
<polyline fill="none" stroke="black" points="23.5,-272.5 233.5,-272.5 "/>
<text text-anchor="middle" x="82.5" y="-257.3" font-family="Times,serif" font-size="14.00">Type: Conv2D</text>
<polyline fill="none" stroke="black" points="141.5,-249.5 141.5,-272.5 "/>
<text text-anchor="middle" x="187.5" y="-257.3" font-family="Times,serif" font-size="14.00">Act: linear</text>
<polyline fill="none" stroke="black" points="233.5,-249.5 233.5,-295.5 "/>
<text text-anchor="middle" x="287" y="-268.8" font-family="Times,serif" font-size="14.00">Device: DPU</text>
</a>
</g>
</g>
<!-- 131479521989296&#45;&gt;131476533251520 -->
<g id="edge7" class="edge">
<title>131479521989296&#45;&gt;131476533251520</title>
<path fill="none" stroke="black" d="M182,-332.37C182,-324.15 182,-314.66 182,-305.73"/>
<polygon fill="black" stroke="black" points="185.5,-305.61 182,-295.61 178.5,-305.61 185.5,-305.61"/>
</g>
<!-- 131476533250944 -->
<g id="node9" class="node">
<title>131476533250944</title>
<g id="a_node9"><a xlink:title="max_pooling2d_1">
<path fill="lightskyblue" stroke="black" d="M44,-166.5C44,-166.5 320,-166.5 320,-166.5 326,-166.5 332,-172.5 332,-178.5 332,-178.5 332,-200.5 332,-200.5 332,-206.5 326,-212.5 320,-212.5 320,-212.5 44,-212.5 44,-212.5 38,-212.5 32,-206.5 32,-200.5 32,-200.5 32,-178.5 32,-178.5 32,-172.5 38,-166.5 44,-166.5"/>
<text text-anchor="middle" x="128.5" y="-197.3" font-family="Times,serif" font-size="14.00">Name: max_pooling2d_1</text>
<polyline fill="none" stroke="black" points="32,-189.5 225,-189.5 "/>
<text text-anchor="middle" x="128.5" y="-174.3" font-family="Times,serif" font-size="14.00">Type: MaxPooling2D</text>
<polyline fill="none" stroke="black" points="225,-166.5 225,-212.5 "/>
<text text-anchor="middle" x="278.5" y="-185.8" font-family="Times,serif" font-size="14.00">Device: DPU</text>
</a>
</g>
</g>
<!-- 131476533251520&#45;&gt;131476533250944 -->
<g id="edge8" class="edge">
<title>131476533251520&#45;&gt;131476533250944</title>
<path fill="none" stroke="black" d="M182,-249.37C182,-241.15 182,-231.66 182,-222.73"/>
<polygon fill="black" stroke="black" points="185.5,-222.61 182,-212.61 178.5,-222.61 185.5,-222.61"/>
</g>
<!-- 131476533248544 -->
<g id="node10" class="node">
<title>131476533248544</title>
<g id="a_node10"><a xlink:title="flatten">
<path fill="lightskyblue" stroke="black" d="M82.5,-83.5C82.5,-83.5 281.5,-83.5 281.5,-83.5 287.5,-83.5 293.5,-89.5 293.5,-95.5 293.5,-95.5 293.5,-117.5 293.5,-117.5 293.5,-123.5 287.5,-129.5 281.5,-129.5 281.5,-129.5 82.5,-129.5 82.5,-129.5 76.5,-129.5 70.5,-123.5 70.5,-117.5 70.5,-117.5 70.5,-95.5 70.5,-95.5 70.5,-89.5 76.5,-83.5 82.5,-83.5"/>
<text text-anchor="middle" x="128.5" y="-114.3" font-family="Times,serif" font-size="14.00">Name: flatten</text>
<polyline fill="none" stroke="black" points="70.5,-106.5 186.5,-106.5 "/>
<text text-anchor="middle" x="128.5" y="-91.3" font-family="Times,serif" font-size="14.00">Type: Flatten</text>
<polyline fill="none" stroke="black" points="186.5,-83.5 186.5,-129.5 "/>
<text text-anchor="middle" x="240" y="-102.8" font-family="Times,serif" font-size="14.00">Device: DPU</text>
</a>
</g>
</g>
<!-- 131476533250944&#45;&gt;131476533248544 -->
<g id="edge9" class="edge">
<title>131476533250944&#45;&gt;131476533248544</title>
<path fill="none" stroke="black" d="M182,-166.37C182,-158.15 182,-148.66 182,-139.73"/>
<polygon fill="black" stroke="black" points="185.5,-139.61 182,-129.61 178.5,-139.61 185.5,-139.61"/>
</g>
<!-- 131476533522096 -->
<g id="node11" class="node">
<title>131476533522096</title>
<g id="a_node11"><a xlink:title="xir::Op{name = quant_dense(TransferMatMulToConv2d), type = conv2d&#45;fix} has been assigned to CPU: [Weights(5, 8, 8, 748) is too large to be loaded into parameter buffer. &quot;kernel_h * kernel_w * kernel_d(=1 for conv2d) * ⌈input_channel / weights_bank_width⌉ * ⌈output_channel_parallel / weights_bank_num⌉&quot;(3008) is supposed to be less equal than 2048]; Seperate layer activation `sigmoid`; Convert activation `sigmoid` to VitisSigmoid">
<path fill="#ff3030" stroke="black" d="M12,-0.5C12,-0.5 352,-0.5 352,-0.5 358,-0.5 364,-6.5 364,-12.5 364,-12.5 364,-34.5 364,-34.5 364,-40.5 358,-46.5 352,-46.5 352,-46.5 12,-46.5 12,-46.5 6,-46.5 0,-40.5 0,-34.5 0,-34.5 0,-12.5 0,-12.5 0,-6.5 6,-0.5 12,-0.5"/>
<text text-anchor="middle" x="106" y="-31.3" font-family="Times,serif" font-size="14.00">Name: dense</text>
<polyline fill="none" stroke="black" points="0,-23.5 212,-23.5 "/>
<text text-anchor="middle" x="52.5" y="-8.3" font-family="Times,serif" font-size="14.00">Type: Dense</text>
<polyline fill="none" stroke="black" points="105,-0.5 105,-23.5 "/>
<text text-anchor="middle" x="158.5" y="-8.3" font-family="Times,serif" font-size="14.00">Act: sigmoid</text>
<polyline fill="none" stroke="black" points="212,-0.5 212,-46.5 "/>
<text text-anchor="middle" x="288" y="-19.8" font-family="Times,serif" font-size="14.00">Device: CPU+DPU</text>
</a>
</g>
</g>
<!-- 131476533248544&#45;&gt;131476533522096 -->
<g id="edge10" class="edge">
<title>131476533248544&#45;&gt;131476533522096</title>
<path fill="none" stroke="black" d="M182,-83.37C182,-75.15 182,-65.66 182,-56.73"/>
<polygon fill="black" stroke="black" points="185.5,-56.61 182,-46.61 178.5,-56.61 185.5,-56.61"/>
</g>
</g>
</svg>
